<svg xmlns="http://www.w3.org/2000/svg" width="960" height="640" viewBox="0 0 960 640" role="img" aria-label="Vízszerelés és fűtés illusztráció">
  <rect width="960" height="640" fill="#f5fbfe"/>
  <rect x="72" y="72" width="816" height="496" rx="18" fill="#ffffff" stroke="#d8e8f1" stroke-width="3"/>
  <path d="M154 382 C154 276 238 234 332 234 H612 C704 234 772 166 772 92" fill="none" stroke="#6aa8c8" stroke-width="34" stroke-linecap="round"/>
  <path d="M186 410 C248 348 312 448 388 360 S544 382 612 312" fill="none" stroke="#245a7a" stroke-width="16" stroke-linecap="round"/>
  <circle cx="268" cy="234" r="58" fill="#fff4cf" stroke="#f4bd32" stroke-width="8"/>
  <path d="M268 188s34 42 34 68a34 34 0 0 1-68 0c0-26 34-68 34-68z" fill="none" stroke="#245a7a" stroke-width="12" stroke-linecap="round" stroke-linejoin="round"/>
  <rect x="600" y="318" width="178" height="156" rx="14" fill="#eaf7fc" stroke="#245a7a" stroke-width="8"/>
  <path d="M630 364h118M630 410h118M690 444h.1" stroke="#245a7a" stroke-width="10" stroke-linecap="round"/>
  <rect x="178" y="428" width="264" height="54" rx="27" fill="#245a7a"/>
  <circle cx="236" cy="455" r="22" fill="#f4bd32"/>
  <circle cx="384" cy="455" r="22" fill="#f4bd32"/>
  <path d="M126 524h708" stroke="#d8e8f1" stroke-width="6" stroke-linecap="round"/>
</svg>
